<svg width="14" height="14" viewBox="0 0 14 14" xmlns="http://www.w3.org/2000/svg">
<path d="M11.7731 13.3641C12.2124 13.8034 12.9247 13.8034 13.3641 13.3641C13.8034 12.9247 13.8034 12.2124 13.3641 11.7731L8.5911 7.00011L13.3641 2.22714C13.8034 1.7878 13.8034 1.07549 13.3641 0.636146C12.9247 0.196806 12.2124 0.196805 11.7731 0.636145L7.00011 5.40912L2.22714 0.636146C1.7878 0.196806 1.07549 0.196807 0.636146 0.636146C0.196806 1.07549 0.196805 1.7878 0.636145 2.22714L5.40912 7.00011L0.636145 11.7731C0.196806 12.2124 0.196806 12.9247 0.636146 13.3641C1.07549 13.8034 1.7878 13.8034 2.22714 13.3641L7.00011 8.5911L11.7731 13.3641Z" />
</svg>
